<?xml version="1.0" encoding="UTF-8"?>
<svg id="Layer_2" data-name="Layer 2" xmlns="http://www.w3.org/2000/svg" viewBox="0 0 807.43 446.7">
  <defs>
    <style>
      .cls-1 {
        fill: #ffd400;
      }

      .cls-2 {
        fill: #282828;
      }
    </style>
  </defs>
  <g id="_ÎÓÈ_1" data-name="—ÎÓÈ_1">
    <g id="STICKERS">
      <g id="STICKERS-2" data-name="STICKERS">
        <g>
          <ellipse class="cls-1" cx="403.71" cy="223.35" rx="414.93" ry="201.61" transform="translate(-44.73 114.86) rotate(-15.35)"/>
          <path class="cls-2" d="M443.64,368.76c-80.38,22.07-160.26,27.59-224.92,15.53-66.33-12.37-109.07-41.81-120.35-82.89-1.02-3.72,1.45-7.63,5.52-8.75s8.19,.99,9.21,4.7c9.85,35.88,48.66,61.86,109.28,73.16,62.29,11.61,139.55,6.21,217.57-15.21s147.2-56.23,194.83-98.02c46.35-40.67,66.45-82.83,56.6-118.7-1.02-3.72,1.45-7.63,5.52-8.75,4.07-1.12,8.19,.99,9.21,4.7,11.28,41.09-10.44,88.22-61.15,132.73-49.44,43.38-120.93,79.43-201.32,101.5Z"/>
          <g>
            <path class="cls-2" d="M264.24,203.01c3.05,11.1-13,25.19-35.86,31.46-22.85,6.27-43.85,2.36-46.9-8.74-3.05-11.1,13-25.19,35.86-31.46,22.85-6.27,43.85-2.36,46.9,8.74Z"/>
            <ellipse class="cls-2" cx="554.62" cy="123.28" rx="42.91" ry="20.85" transform="translate(-12.85 151.24) rotate(-15.35)"/>
          </g>
        </g>
      </g>
    </g>
  </g>
</svg>