<?xml version="1.0" encoding="UTF-8"?>
<svg id="Layer_2" data-name="Layer 2" xmlns="http://www.w3.org/2000/svg" viewBox="0 0 557.2 557.2">
  <defs>
    <style>
      .cls-1 {
        fill: #fff;
      }

      .cls-2 {
        fill: #64a3ff;
      }

      .cls-3 {
        fill: #161616;
      }
    </style>
  </defs>
  <g id="_ÎÓÈ_1" data-name="—ÎÓÈ_1">
    <g id="STICKERS">
      <g id="STICKERS-2" data-name="STICKERS">
        <g>
          <path class="cls-2" d="M278.6,557.2c153.87,0,278.6-124.73,278.6-278.6h0C557.2,124.73,432.47,0,278.6,0H59.17C26.49,0,0,26.49,0,59.17V494.86c0,34.43,27.91,62.34,62.34,62.34h216.26Z"/>
          <path class="cls-3" d="M278.6,533.28c34.38,0,67.74-6.73,99.13-20.01,30.33-12.83,57.56-31.19,80.95-54.58,23.39-23.39,41.75-50.63,54.58-80.95,13.28-31.4,20.01-64.75,20.01-99.14s-6.73-67.74-20.01-99.13c-12.83-30.33-31.19-57.56-54.58-80.95-23.39-23.39-50.63-41.75-80.95-54.58-31.4-13.28-64.75-20.01-99.13-20.01H78.37c-30.02,0-54.45,24.43-54.45,54.45V475.94c0,31.62,25.73,57.35,57.35,57.35h197.34ZM24.83,475.94V78.37c0-29.52,24.01-53.53,53.53-53.53h200.23c139.93,0,253.77,113.84,253.77,253.77s-113.84,253.76-253.77,253.76H81.26c-31.11,0-56.43-25.31-56.43-56.43Z"/>
          <polygon class="cls-1" points="233.18 307.86 133.43 463.4 250.53 320.46 261.25 504.93 271.97 320.46 389.07 463.4 289.32 307.86 468.07 354.67 295.95 287.47 468.07 220.27 289.32 267.07 389.07 111.53 271.97 254.47 261.25 70 250.53 254.47 133.43 111.53 233.18 267.07 54.43 220.27 226.56 287.47 54.43 354.67 233.18 307.86"/>
          <polygon class="cls-1" points="228.57 299.1 88.94 420.14 241.65 316.09 199.83 496.08 262.22 322.15 334.18 492.34 282.42 314.96 440.68 410.34 294.53 297.27 478.63 281.41 293.94 275.83 433.56 154.8 280.86 258.84 322.67 78.85 260.29 252.79 188.32 82.6 240.08 259.98 81.83 164.59 227.97 277.67 43.87 293.52 228.57 299.1"/>
        </g>
      </g>
    </g>
  </g>
</svg>