<?xml version="1.0" encoding="UTF-8"?>
<svg id="Layer_2" data-name="Layer 2" xmlns="http://www.w3.org/2000/svg" viewBox="0 0 350.43 404.19">
  <defs>
    <style>
      .cls-1 {
        fill: #ff4e00;
      }

      .cls-2 {
        fill: #ffd400;
      }
    </style>
  </defs>
  <g id="_ÎÓÈ_1" data-name="—ÎÓÈ_1">
    <g id="STICKERS">
      <g id="STICKERS-2" data-name="STICKERS">
        <g>
          <path class="cls-1" d="M333.33,148.64c13.88,54.62,19.04,109.78,16.46,163.53-37.83,31.53-80.89,56.3-128.25,72.3-47.35,16-95.19,21.96-141.8,18.97-27.32-43.64-48.79-93.29-62.66-147.92C3.21,200.92-1.95,145.76,.65,92.01,38.48,60.47,81.52,35.71,128.88,19.71,176.23,3.7,224.06-2.25,270.66,.75c27.34,43.64,48.8,93.29,62.67,147.89Z"/>
          <g>
            <path class="cls-2" d="M229.73,248.1c-23.24,36.64-50.64,66.46-77.16,83.95-27.09,17.87-50.19,20.81-65.04,8.28-14.85-12.53-19.42-38.81-12.85-74,6.42-34.45,22.76-73.6,46-110.25,23.24-36.64,50.64-66.46,77.16-83.95,27.09-17.87,50.19-20.81,65.04-8.28,14.85,12.53,19.42,38.81,12.85,74-6.42,34.45-22.76,73.6-46,110.25Zm-105.27-88.83c-22.86,36.04-38.91,74.47-45.2,108.19-6.15,32.98-2.23,57.31,11.04,68.51,13.27,11.2,34.56,8.14,59.95-8.61,25.96-17.13,52.85-46.41,75.7-82.45,22.86-36.04,38.91-74.47,45.2-108.19,6.15-32.98,2.23-57.31-11.04-68.51-13.27-11.2-34.56-8.14-59.95,8.61-25.96,17.13-52.85,46.41-75.7,82.45Z"/>
            <path class="cls-2" d="M221.19,186.55c-38.96,17.64-40.79,21.88-31.41,72.91-15.98-48.8-19.5-51.23-60.55-41.83,38.96-17.64,40.79-21.88,31.41-72.91,15.98,48.8,19.5,51.23,60.55,41.83Z"/>
            <path class="cls-2" d="M121.98,301.04c1.64,6.44-1.57,13.2-7.15,15.09-5.59,1.89-11.44-1.81-13.08-8.25-1.64-6.44,1.56-13.2,7.15-15.09,5.59-1.89,11.44,1.81,13.08,8.25Z"/>
            <path class="cls-2" d="M249.3,98.78c1.64,6.44-1.57,13.2-7.15,15.09-5.59,1.89-11.44-1.81-13.08-8.25-1.64-6.45,1.57-13.2,7.15-15.09,5.59-1.89,11.44,1.81,13.08,8.25Z"/>
          </g>
        </g>
      </g>
    </g>
  </g>
</svg>