<?xml version="1.0" encoding="UTF-8"?>
<svg id="Layer_2" data-name="Layer 2" xmlns="http://www.w3.org/2000/svg" viewBox="0 0 399.42 146.51">
  <defs>
    <style>
      .cls-1 {
        fill: #ffd400;
      }
    </style>
  </defs>
  <g id="_ÎÓÈ_1" data-name="—ÎÓÈ_1">
    <g id="STICKERS">
      <g id="STICKERS-2" data-name="STICKERS">
        <g>
          <g>
            <path class="cls-1" d="M61.04,102.44c-.64-.05-1.27-.1-1.92-.17-7.13-.73-13.52-2.35-19.16-4.87-5.64-2.51-10.32-5.81-14.02-9.9-3.71-4.09-6.39-8.96-8.06-14.61-1.67-5.65-2.13-12.05-1.4-19.18,.76-7.44,2.54-13.81,5.33-19.11,2.79-5.3,6.41-9.58,10.87-12.83,4.46-3.25,9.7-5.51,15.74-6.77,6.03-1.26,12.61-1.52,19.74-.79,.64,.07,1.28,.14,1.91,.22l1.4-13.65c-.63-.08-1.27-.15-1.91-.21-9.3-.95-17.86-.71-25.69,.73-7.82,1.44-14.74,4.18-20.74,8.21-6,4.03-10.94,9.45-14.83,16.26-3.88,6.81-6.48,15.11-7.8,24.89l-.29,2.79c-.68,9.64,.2,18.14,2.63,25.49,2.43,7.35,6.17,13.61,11.23,18.78,5.06,5.17,11.27,9.25,18.64,12.25,7.37,3,15.7,4.98,25.01,5.94,.64,.07,1.28,.12,1.92,.18l1.4-13.65Z"/>
            <path class="cls-1" d="M250.73,51.05c-2.43-7.4-6.17-13.72-11.22-18.93-5.05-5.22-11.26-9.38-18.61-12.49-6.84-2.89-14.52-4.84-23.04-5.87l-1.4,13.65c6.35,.82,12.09,2.39,17.21,4.71,5.64,2.56,10.3,5.94,14,10.13,3.7,4.19,6.37,9.14,8.03,14.85,1.66,5.71,2.12,12.12,1.39,19.26-.74,7.24-2.5,13.45-5.28,18.65-2.78,5.2-6.4,9.42-10.86,12.67-4.46,3.25-9.7,5.51-15.74,6.77-5.48,1.14-11.4,1.47-17.79,.97l-1.4,13.65c8.55,.73,16.46,.43,23.74-.91,7.83-1.44,14.73-4.15,20.73-8.13,5.99-3.98,10.93-9.35,14.81-16.1,3.88-6.75,6.47-14.92,7.77-24.5l.29-2.79c.68-9.64-.2-18.17-2.62-25.57Z"/>
            <path class="cls-1" d="M280.19,117.29l-1.83,17.83-15.19-1.56,11.14-108.52,15.19,1.56-7.45,72.56,94.89-63.58,22.48,2.31-48.93,32.58,38.88,76.06-18.14-1.86-33.52-65.64-57.51,38.27Z"/>
            <rect class="cls-1" x="70.45" y="7.24" width="127.04" height="13.72" transform="translate(2.14 -13.61) rotate(5.86)"/>
            <rect class="cls-1" x="60.01" y="108.91" width="127.04" height="13.72" transform="translate(12.47 -12.01) rotate(5.86)"/>
          </g>
          <g>
            <path class="cls-1" d="M151.56,54.06h0c-1.23-3.76-3.17-7.02-5.74-9.68-2.55-2.64-5.72-4.76-9.41-6.32-2.75-1.16-5.81-2.02-9.11-2.57v-.1s-2.25-.23-2.25-.23l-2.28-.28v.04s-56.49-5.8-56.49-5.8c-.3-.04-.6-.07-.9-.1-.18-.02-.36-.03-.55-.05l-.84-.09h0c-4-.3-7.77-.13-11.21,.5-3.93,.73-7.47,2.13-10.5,4.17-3.07,2.07-5.63,4.87-7.61,8.32-1.94,3.41-3.26,7.58-3.91,12.4l-.14,1.37v.07c-.34,4.76,.11,9.05,1.33,12.73,1.23,3.74,3.17,6.97,5.76,9.61,2.56,2.62,5.74,4.71,9.44,6.22,3.24,1.32,6.9,2.24,10.88,2.75v.02s58.76,6.03,58.76,6.03v.03s1.8,.15,1.8,.15l2.74,.28v-.1c3.34,.14,6.5-.05,9.41-.59,3.93-.72,7.46-2.11,10.49-4.12,3.07-2.04,5.63-4.82,7.6-8.25,1.94-3.38,3.25-7.5,3.89-12.23l.14-1.37v-.07c.34-4.76-.11-9.05-1.32-12.76Zm-87.87,22.58v-.06s-2.33-.18-2.33-.18c-.15-.01-.3-.03-.45-.04l-.7-.07c-2.94-.33-5.6-1.01-7.91-2.04-2.32-1.03-4.26-2.4-5.76-4.05-1.48-1.63-2.57-3.62-3.25-5.91-.69-2.33-.88-5.03-.57-8.04,.32-3.15,1.07-5.86,2.23-8.06,1.13-2.14,2.6-3.89,4.38-5.18,1.8-1.31,3.97-2.24,6.44-2.76,2.34-.49,4.93-.62,7.7-.4l1.66,.17,2.27,.29v-.06s56.46,5.8,56.46,5.8c2.71,.35,5.17,1.02,7.33,2,2.31,1.05,4.24,2.45,5.74,4.14,1.49,1.69,2.58,3.72,3.26,6.03,.69,2.36,.88,5.08,.57,8.08-.31,3.05-1.05,5.68-2.2,7.83-1.12,2.1-2.6,3.83-4.38,5.12-1.8,1.31-3.97,2.24-6.44,2.76-2.32,.48-4.89,.62-7.63,.41l-.25-.02-56.19-5.77Z"/>
            <polygon class="cls-1" points="225.09 47.02 207.49 45.22 166.72 72.53 169.92 41.36 158.32 40.17 152.67 95.17 164.28 96.37 165.25 86.88 188.96 71.09 203.95 100.44 217.8 101.86 198.74 64.57 225.09 47.02"/>
          </g>
        </g>
      </g>
    </g>
  </g>
</svg>