<?xml version="1.0" encoding="UTF-8"?>
<svg id="Layer_2" data-name="Layer 2" xmlns="http://www.w3.org/2000/svg" viewBox="0 0 545.15 572.31">
  <defs>
    <style>
      .cls-1 {
        fill: #fff7e1;
      }

      .cls-2 {
        fill: #141414;
      }
    </style>
  </defs>
  <g id="_ÎÓÈ_1" data-name="—ÎÓÈ_1">
    <g id="STICKERS">
      <g id="STICKERS-2" data-name="STICKERS">
        <g>
          <path class="cls-1" d="M494.52,78.8c-16.8-23.97-36.68-42.99-59.08-56.5C410.93,7.5,384.66,0,357.36,0c-23.27,0-45.95,5.51-67.42,16.38-7.26,3.68-14.3,7.94-21.11,12.75-7.31-4.88-14.89-9.24-22.62-13C224.48,5.58,201.9,0,180.93,0c-23.27,0-45.95,5.51-67.42,16.38-19.84,10.05-38.1,24.42-54.25,42.72-11.64,13.19-10.39,33.31,2.8,44.96l8.98,7.93c-10.76,11.12-20.6,24.26-29.4,39.33C14.79,197.28,0,257.56,0,321.05s14.79,123.77,41.64,169.74c14.66,25.09,32.18,44.87,52.06,58.79,21.55,15.08,44.88,22.73,69.36,22.73s49.56-8.27,71.82-24.57c5.72-4.19,11.23-8.87,16.52-14.01,5.29,5.14,10.8,9.82,16.52,14.01,22.26,16.3,46.43,24.57,71.82,24.57s47.81-7.65,69.36-22.73c19.88-13.92,37.4-33.7,52.06-58.79,26.85-45.96,41.64-106.24,41.64-169.74,0-12.81-.61-25.49-1.79-37.94h12.29c17.59,0,31.85-14.26,31.85-31.85,0-64.63-17.98-125.87-50.63-172.46Z"/>
          <g>
            <path class="cls-2" d="M163.06,540.46c-35.8,0-69.15-23.35-93.91-65.74-24.05-41.16-37.29-95.74-37.29-153.67s13.24-112.51,37.29-153.68c24.77-42.39,58.12-65.74,93.91-65.74,18.49,0,36.32,6.2,53,18.41,15.71,11.51,29.72,27.85,41.64,48.58,14.53,25.27,25.33,56.41,31.23,90.05l-14.32,2.51c-5.61-32-15.82-61.5-29.52-85.31-22.13-38.5-51.27-59.7-82.04-59.7s-59.31,20.79-81.36,58.53c-22.77,38.97-35.31,90.94-35.31,146.34s12.54,107.36,35.31,146.33c22.05,37.74,50.95,58.53,81.36,58.53s59.91-21.2,82.04-59.7c15.12-26.29,25.86-59.09,31.05-94.84l14.39,2.09c-5.45,37.55-16.81,72.13-32.83,100-11.92,20.73-25.93,37.07-41.64,48.58-16.69,12.22-34.52,18.41-53,18.41Z"/>
            <path class="cls-2" d="M157.91,315.44c0,17.54-4.11,33.43-10.77,45.02-6.8,11.83-16.26,19.17-26.73,19.17-20.71,0-37.5-28.74-37.5-64.18s16.79-64.19,37.5-64.19c10.46,0,19.93,7.33,26.73,19.17,6.66,11.58,10.77,27.48,10.77,45.02Z"/>
            <path class="cls-2" d="M338.12,315.45c0,17.54-4.11,33.43-10.77,45.01-6.8,11.83-16.26,19.17-26.73,19.17-6.23,0-12.11-2.6-17.28-7.21,2.4-16.44,3.66-33.66,3.66-51.37,0-21.24-1.83-41.76-5.23-61.11,5.53-5.53,11.97-8.69,18.85-8.69,10.46,0,19.93,7.34,26.73,19.17,6.66,11.59,10.77,27.48,10.77,45.03Z"/>
            <path class="cls-2" d="M339.74,540.46c-18.49,0-36.32-6.19-53-18.41-15.71-11.51-29.72-27.85-41.64-48.58l-2.08-3.62,2.08-3.62c15.12-26.29,25.86-59.09,31.05-94.84,2.38-16.34,3.59-33.27,3.59-50.32,0-20.38-1.72-40.52-5.12-59.85-5.61-32-15.82-61.5-29.52-85.32l-2.08-3.62,2.08-3.62c11.92-20.73,25.93-37.08,41.64-48.58,16.69-12.22,34.52-18.41,53-18.41,35.8,0,69.15,23.35,93.91,65.74,24.05,41.16,37.29,95.74,37.29,153.68s-13.24,112.51-37.29,153.67c-24.77,42.39-58.12,65.74-93.91,65.74Zm-79.96-70.7c21.86,36.26,50.14,56.16,79.96,56.16s59.31-20.79,81.36-58.53c22.77-38.97,35.31-90.94,35.31-146.33s-12.54-107.37-35.31-146.34c-22.05-37.74-50.95-58.53-81.36-58.53s-58.09,19.9-79.96,56.16c13.48,24.58,23.54,54.33,29.15,86.34,3.54,20.16,5.34,41.14,5.34,62.37,0,17.75-1.26,35.39-3.74,52.42-5.21,35.9-15.82,69.08-30.75,96.29Z"/>
            <path class="cls-2" d="M513.3,251.26h-14.54c0-112.97-63.43-204.87-141.39-204.87-31.77,0-61.81,15.01-86.89,43.41l-10.9-9.62c13.47-15.26,28.53-27.16,44.76-35.38,16.96-8.59,34.8-12.95,53.03-12.95,21.41,0,42.15,5.96,61.62,17.72,18.58,11.21,35.21,27.2,49.45,47.51,28.93,41.28,44.86,96.03,44.86,154.18Z"/>
            <path class="cls-2" d="M269.52,89.99c-25.13-26.49-59.9-43.6-88.59-43.6-31.77,0-61.81,15.01-86.89,43.41l-10.9-9.62c13.47-15.26,28.53-27.16,44.76-35.38,16.96-8.59,34.8-12.95,53.03-12.95,32.99,0,70.98,18.45,99.14,48.14l-10.55,10.01Z"/>
          </g>
        </g>
      </g>
    </g>
  </g>
</svg>