<?xml version="1.0" encoding="UTF-8"?>
<svg id="Layer_2" data-name="Layer 2" xmlns="http://www.w3.org/2000/svg" viewBox="0 0 854.71 278.13">
  <defs>
    <style>
      .cls-1 {
        fill: #fff7e1;
      }

      .cls-2 {
        fill: #141414;
      }
    </style>
  </defs>
  <g id="_ÎÓÈ_1" data-name="—ÎÓÈ_1">
    <g id="STICKERS">
      <g id="STICKERS-2" data-name="STICKERS">
        <g>
          <g>
            <path class="cls-1" d="M42.15,278.13c-12.46,0-24.28-5.51-32.28-15.05C1.85,253.54-1.52,240.94,.64,228.68l8.57-48.64c.96-5.47,2.62-10.66,4.88-15.48-.63-4.39-.58-8.89,.21-13.35l4.02-22.82c.96-5.46,2.63-10.65,4.88-15.47-.64-4.39-.58-8.9,.2-13.36l4.02-22.82c3.82-21.68,18.62-38.99,38.09-46.63C76.34,11.87,96.17,0,118.45,0h74.43c12.46,0,24.28,5.51,32.29,15.06,3.83,4.56,6.6,9.82,8.21,15.41,4.95,2.54,9.4,6.05,13.06,10.41,8.01,9.54,11.38,22.14,9.22,34.41l-13.13,74.47c-3.82,21.68-18.62,38.98-38.09,46.63-10.82,18.22-30.65,30.08-52.94,30.08h-25.82l-.14,.77c-5.2,29.48-30.7,50.88-60.64,50.88h-22.76Z"/>
            <path class="cls-1" d="M269.14,278.13c-4.45,0-8.81-.7-12.95-2.04-5.04,1.33-10.33,2.04-15.76,2.04h-48.77c-12.46,0-24.28-5.51-32.28-15.05-8.01-9.54-11.38-22.14-9.22-34.41l4.05-22.98c5.18-29.39,30.6-50.72,60.44-50.72h.16l.17-.94c.96-5.43,2.6-10.58,4.84-15.37-.63-4.37-.57-8.86,.21-13.3l.39-2.19h-1.43c-12.46,0-24.28-5.51-32.29-15.06-8.01-9.54-11.38-22.14-9.22-34.41l4.05-22.98C186.72,21.33,212.14,0,241.98,0h48.77c4.45,0,8.81,.7,12.95,2.04,5.04-1.33,10.33-2.04,15.76-2.04h48.77c12.46,0,24.28,5.51,32.28,15.05,8.01,9.54,11.38,22.14,9.22,34.41l-4.05,22.98c-5.19,29.39-30.61,50.72-60.45,50.72h-.15l-.17,.94c-.96,5.43-2.6,10.58-4.84,15.38,.63,4.37,.57,8.85-.21,13.3l-.39,2.19h1.43c12.46,0,24.28,5.51,32.28,15.05,8.01,9.54,11.38,22.14,9.22,34.41l-4.05,22.98c-5.19,29.39-30.61,50.72-60.45,50.72h-48.77Z"/>
            <path class="cls-1" d="M448.49,278.13c-12.46,0-24.28-5.51-32.29-15.06-1.35-1.61-2.58-3.31-3.66-5.09-11.76,12.5-28.42,20.14-46.67,20.14h-20.69c-12.46,0-24.28-5.51-32.29-15.06-8.01-9.54-11.38-22.14-9.22-34.41l8.22-46.6c3.24-18.34,14.03-33.68,28.84-43.04-1.82-1.54-3.51-3.24-5.07-5.09-8.01-9.54-11.38-22.14-9.22-34.41l8.61-48.81c5.18-29.38,30.6-50.72,60.44-50.72h22.94c12.46,0,24.28,5.51,32.28,15.05,1.18,1.4,2.25,2.87,3.23,4.4,11.28-12.07,27.3-19.45,44.86-19.45h22.94c12.46,0,24.28,5.51,32.29,15.06,8.01,9.54,11.38,22.14,9.22,34.41l-8.61,48.81c-3.11,17.66-13.53,32.41-27.83,41.37,1.58,1.39,3.07,2.91,4.45,4.55,8.01,9.54,11.38,22.14,9.22,34.41l-8.22,46.6c-5.41,30.67-31.94,52.93-63.08,52.93h-20.69Z"/>
            <path class="cls-1" d="M529.27,278.13c-12.46,0-24.28-5.51-32.29-15.06-3.83-4.56-6.6-9.82-8.21-15.41-4.95-2.54-9.4-6.06-13.06-10.42-8.01-9.54-11.38-22.14-9.22-34.41l8.58-48.65c.96-5.46,2.62-10.65,4.88-15.47-.64-4.39-.58-8.9,.21-13.37l8.58-48.65c3.82-21.67,18.62-38.98,38.08-46.62,10.82-18.22,30.65-30.09,52.94-30.09h100.26c12.46,0,24.27,5.51,32.28,15.05s11.38,22.14,9.22,34.41l-4.02,22.82c-1.93,10.92-6.64,20.73-13.32,28.76,3.91,7.95,5.25,17.02,3.68,25.91l-4.02,22.82c-1.93,10.92-6.64,20.73-13.33,28.75,3.91,7.95,5.25,17.01,3.68,25.9l-4.02,22.82c-5.21,29.49-30.71,50.89-60.64,50.89h-100.26Z"/>
            <path class="cls-1" d="M689.15,278.13c-12.46,0-24.28-5.51-32.29-15.06-3.83-4.56-6.6-9.82-8.21-15.41-4.95-2.54-9.4-6.06-13.06-10.42-8.01-9.54-11.38-22.14-9.22-34.41l25.52-144.73C657.82,24.45,686.95,0,721.15,0h15.43c12.46,0,24.28,5.51,32.28,15.05,8.01,9.54,11.38,22.14,9.22,34.41l-18.6,105.5h53.09c12.46,0,24.28,5.51,32.29,15.06,8.01,9.54,11.38,22.14,9.22,34.41l-2.75,15.59c-5.93,33.67-35.06,58.11-69.26,58.11h-92.91Z"/>
          </g>
          <g>
            <path class="cls-2" d="M214.15,67.98l-13.13,74.47c-1.64,9.3-9.69,16.06-19.13,16.06h-4.16c-3.11,0-5.75,2.22-6.29,5.28l-.79,4.49c-1.64,9.3-9.69,16.05-19.13,16.05h-55.82c-3.11,0-5.75,2.22-6.29,5.28l-5.35,30.31c-1.64,9.3-9.69,16.06-19.14,16.06h-22.76l8.57-48.64c1.64-9.3,9.69-16.05,19.13-16.05h4.17c3.11,0,5.75-2.22,6.29-5.28,.45-2.55-.68-4.36-1.4-5.22-.71-.85-2.3-2.28-4.9-2.28h-18.21l4.02-22.82c1.64-9.3,9.69-16.05,19.13-16.05h22.77l-3.23,18.33c-.45,2.56,.68,4.37,1.4,5.22,.71,.85,2.3,2.28,4.89,2.28h51.26c3.11,0,5.75-2.22,6.29-5.28l9.11-51.66c.45-2.55-.68-4.37-1.4-5.22-.71-.85-2.3-2.28-4.89-2.28h-51.26c-3.11,0-5.75,2.22-6.29,5.28l-.79,4.49c-1.64,9.3-9.69,16.05-19.13,16.05h-22.78l4.02-22.82c1.64-9.3,9.69-16.05,19.13-16.05h4.17c3.11,0,5.75-2.22,6.29-5.28l.79-4.49c1.64-9.3,9.69-16.05,19.13-16.05h74.43l-3.23,18.33c-.45,2.55,.68,4.36,1.4,5.22,.72,.85,2.3,2.28,4.9,2.28h18.21Z"/>
            <path class="cls-2" d="M296.63,197.11h44.28l-4.05,22.98c-1.62,9.21-9.59,15.89-18.94,15.89h-48.77l3.27-18.56c.44-2.48-.66-4.23-1.35-5.06-.69-.83-2.23-2.21-4.74-2.21-3.01,0-5.58,2.15-6.1,5.12l-.85,4.82c-1.62,9.21-9.59,15.89-18.94,15.89h-48.77l4.05-22.98c1.62-9.21,9.59-15.89,18.94-15.89h30.32c3.01,0,5.58-2.15,6.1-5.12l5.4-30.65c1.62-9.21,9.59-15.89,18.94-15.89h22.94l-7.82,44.39c-.44,2.48,.66,4.23,1.35,5.06,.69,.82,2.23,2.21,4.74,2.21ZM368.23,42.14l-4.05,22.98c-1.62,9.21-9.59,15.89-18.94,15.89h-30.32c-3.01,0-5.58,2.15-6.1,5.12l-5.4,30.64c-1.62,9.21-9.59,15.89-18.94,15.89h-22.94l7.83-44.39c.44-2.47-.66-4.23-1.35-5.06-.69-.83-2.23-2.21-4.74-2.21h-44.28l4.05-22.98c1.62-9.21,9.59-15.89,18.94-15.89h48.77l-3.27,18.56c-.44,2.47,.66,4.23,1.35,5.06,.69,.83,2.23,2.21,4.74,2.21,3.01,0,5.58-2.15,6.1-5.12l.85-4.82c1.62-9.21,9.59-15.89,18.94-15.89h48.77Z"/>
            <path class="cls-2" d="M521.75,42.14l-8.61,48.81c-1.62,9.21-9.59,15.89-18.94,15.89h-4.49c-3.01,0-5.58,2.15-6.1,5.12l-.85,4.82c-1.62,9.21-9.59,15.89-18.94,15.89h-4.49c-3.01,0-5.58,2.15-6.1,5.12l-.85,4.82c-.17,.98-.42,1.93-.73,2.85h26.06l-2.72,15.42c-.45,2.59,.25,5.23,1.94,7.24,1.69,2.01,4.17,3.17,6.8,3.17h15.26l-8.22,46.6c-1.85,10.49-10.93,18.11-21.58,18.11h-20.69l7.27-41.25c.46-2.59-.25-5.23-1.94-7.24-1.69-2.01-4.17-3.17-6.8-3.17h-46.22c-4.31,0-7.99,3.08-8.74,7.33l-4.62,26.22c-1.85,10.49-10.92,18.11-21.58,18.11h-20.69l8.22-46.6c1.85-10.49,10.93-18.11,21.58-18.11,4.31,0,7.99-3.08,8.74-7.33l.07-.4c1.85-10.48,10.92-18.1,21.57-18.1h7.45l.97-5.51c.44-2.48-.66-4.23-1.35-5.06-.69-.83-2.23-2.21-4.74-2.21h-18.45l3.27-18.56c.44-2.48-.66-4.23-1.36-5.06-.69-.83-2.23-2.21-4.74-2.21h-18.44l8.61-48.81c1.62-9.21,9.59-15.89,18.94-15.89h22.94l-7.82,44.39c-.44,2.47,.66,4.23,1.36,5.06,.69,.83,2.23,2.21,4.74,2.21h18.45l-3.27,18.56c-.44,2.47,.66,4.23,1.36,5.06,.69,.82,2.23,2.21,4.74,2.21,3.01,0,5.58-2.15,6.1-5.12l.85-4.82c1.62-9.21,9.59-15.89,18.94-15.89h4.49c3.01,0,5.58-2.15,6.1-5.12l5.4-30.64c1.62-9.21,9.59-15.89,18.94-15.89h22.94Z"/>
            <path class="cls-2" d="M680.02,42.14l-4.02,22.82c-1.64,9.3-9.69,16.05-19.13,16.05h-81.65c-3.11,0-5.75,2.22-6.29,5.28l-4.55,25.83c-.45,2.56,.68,4.37,1.4,5.22,.72,.85,2.3,2.28,4.9,2.28h95.7l-4.02,22.82c-1.64,9.3-9.69,16.05-19.13,16.05h-81.65c-3.11,0-5.75,2.22-6.29,5.28l-4.55,25.83c-.45,2.56,.68,4.37,1.4,5.22,.71,.85,2.3,2.28,4.89,2.28h95.69l-4.02,22.82c-1.64,9.3-9.69,16.05-19.13,16.05h-100.26l3.23-18.33c.45-2.55-.68-4.36-1.4-5.22-.72-.85-2.3-2.28-4.9-2.28h-18.21l8.58-48.65c1.64-9.3,9.69-16.05,19.13-16.05h4.16c3.11,0,5.75-2.22,6.29-5.28,.45-2.55-.68-4.36-1.4-5.22-.71-.85-2.3-2.28-4.9-2.28h-18.21l8.58-48.65c1.64-9.3,9.69-16.05,19.13-16.05h4.16c3.11,0,5.75-2.22,6.29-5.28l.79-4.49c1.64-9.3,9.69-16.05,19.13-16.05h100.26Z"/>
            <path class="cls-2" d="M812.56,197.12l-2.75,15.59c-2.38,13.49-14.05,23.29-27.75,23.29h-92.91l1.42-8.05c.78-4.42-.43-8.92-3.31-12.36-2.89-3.44-7.12-5.41-11.61-5.41h-7.77l25.52-144.73c2.38-13.49,14.05-23.29,27.76-23.29h15.43l-24.19,137.19c-.78,4.42,.43,8.93,3.32,12.36,2.88,3.44,7.11,5.41,11.6,5.41h85.26Z"/>
          </g>
        </g>
      </g>
    </g>
  </g>
</svg>