<?xml version="1.0" encoding="UTF-8"?>
<svg id="Layer_2" data-name="Layer 2" xmlns="http://www.w3.org/2000/svg" viewBox="0 0 914.74 431.17">
  <defs>
    <style>
      .cls-1 {
        fill: #ffd400;
      }

      .cls-2 {
        fill: #101010;
      }
    </style>
  </defs>
  <g id="_ÎÓÈ_1" data-name="—ÎÓÈ_1">
    <g id="STICKERS">
      <g id="STICKERS-2" data-name="STICKERS">
        <g>
          <ellipse class="cls-1" cx="457.37" cy="215.58" rx="186.82" ry="469.81" transform="translate(134.5 604.71) rotate(-75.55)"/>
          <path class="cls-2" d="M421.09,356.43c106.66,27.48,210.69,38.92,292.92,32.23,83.32-6.78,134.62-31.55,144.46-69.75,9.84-38.2-23.11-84.68-92.78-130.87-68.76-45.59-165.37-85.83-272.03-113.31-106.66-27.48-210.68-38.92-292.92-32.23-83.32,6.78-134.62,31.55-144.46,69.75-9.84,38.2,23.11,84.68,92.78,130.87,68.76,45.59,165.37,85.83,272.03,113.31ZM62.3,113.81c9.13-35.44,58.47-58.56,138.95-65.1,81.56-6.64,184.86,4.75,290.86,32.06,106.01,27.31,201.95,67.25,270.15,112.47,67.29,44.61,99.32,88.7,90.2,124.14-9.13,35.44-58.47,58.56-138.95,65.11-81.56,6.64-184.86-4.75-290.86-32.06-106.01-27.31-201.95-67.25-270.15-112.47-67.29-44.62-99.32-88.7-90.2-124.14Z"/>
          <g>
            <g>
              <polygon class="cls-2" points="254.77 168.73 238.67 75.71 207.16 67.6 232.72 194.09 245.3 180.44 254.77 168.73"/>
              <polygon class="cls-2" points="226.44 242.3 346.01 103.37 314.27 95.19 254.77 168.73 259.71 197.3 232.96 195.28 232.72 194.09 195.61 234.36 226.44 242.3"/>
              <polygon class="cls-2" points="259.71 197.3 254.77 168.73 245.3 180.44 232.72 194.09 232.96 195.28 259.71 197.3"/>
            </g>
            <path class="cls-2" d="M474.74,203.01c4.56-14.57,5.68-27.23,3.33-37.98-2.35-10.75-7.86-19.76-16.54-27.03-8.68-7.27-20.48-12.83-35.4-16.67-14.62-3.77-27.98-4.69-40.08-2.77-12.1,1.92-22.35,6.54-30.73,13.88-8.39,7.34-14.18,17.25-17.4,29.73-3.22,12.49-2.84,23.95,1.13,34.38,3.97,10.44,10.91,19.41,20.83,26.92,9.92,7.5,22.11,13.12,36.57,16.85,12.94,3.33,24.35,4.41,34.24,3.22,9.88-1.19,18.24-4.15,25.06-8.89,6.82-4.74,11.84-10.83,15.06-18.28l-28.77-7.41c-3.16,4.71-8.32,7.88-15.48,9.53-7.16,1.65-15.46,1.25-24.9-1.18-8.53-2.2-15.52-5.46-20.98-9.79-5.46-4.33-9.37-9.31-11.73-14.96-2.36-5.64-3.18-11.45-2.45-17.43l108.25,27.89Zm-84.37-59.12c8.09-3.03,17.61-3.13,28.57-.31,11.11,2.86,19.32,7.38,24.64,13.53,5.31,6.16,7.37,13.14,6.17,20.95l-77.19-19.89c3.78-6.49,9.72-11.26,17.8-14.29Z"/>
            <path class="cls-2" d="M564.5,252.56c-1.75,1.74-4.36,2.74-7.83,2.98-3.47,.24-8.1-.38-13.89-1.87-8.53-2.2-14.99-5.61-19.4-10.23-4.41-4.63-6.79-9.74-7.13-15.35l-27.41-7.06c-.86,2.05-1.26,4.87-1.2,8.46,.05,3.59,.85,7.57,2.4,11.94,1.55,4.38,4.19,8.79,7.91,13.24,3.72,4.45,8.78,8.59,15.18,12.43,6.4,3.84,14.39,7,23.98,9.47,10.81,2.78,20.44,3.84,28.89,3.18,8.45-.66,15.42-2.97,20.9-6.91,5.48-3.95,9.16-9.57,11.05-16.88,1.53-5.94,1.54-11.17,.03-15.7-1.51-4.53-4.1-8.52-7.75-11.98-3.66-3.46-7.99-6.64-13-9.56-5.01-2.91-10.33-5.74-15.95-8.49-6.69-3.02-12.22-5.66-16.59-7.93-4.37-2.26-7.51-4.57-9.42-6.93-1.91-2.36-2.45-5.14-1.63-8.33,1.02-3.96,3.73-6.59,8.12-7.89,4.39-1.3,10.32-.99,17.78,.93,7.61,1.96,12.92,4.67,15.93,8.12,3.01,3.45,4.39,8.16,4.16,14.1l26.26,6.77c1.96-7.61,1.83-14.83-.39-21.65-2.22-6.82-6.64-12.83-13.26-18.03-6.62-5.19-15.56-9.24-26.83-12.15-7.46-1.92-14.62-2.95-21.49-3.1-6.86-.14-13.06,.61-18.61,2.27-5.54,1.66-10.2,4.28-13.96,7.85-3.76,3.58-6.35,8.1-7.76,13.59-1.45,5.63-1.35,10.73,.32,15.3,1.66,4.57,4.46,8.7,8.38,12.39,3.92,3.69,8.65,7.06,14.2,10.11,5.54,3.05,11.38,5.94,17.5,8.65,6.16,2.56,11.15,4.91,14.99,7.03,3.84,2.13,6.52,4.32,8.05,6.58,1.52,2.26,1.88,4.99,1.06,8.19-.67,2.59-1.88,4.75-3.62,6.49Z"/>
            <path class="cls-2" d="M693.3,285.74c-1.75,1.74-4.36,2.74-7.83,2.98-3.47,.24-8.1-.38-13.89-1.87-8.53-2.2-14.99-5.61-19.4-10.23-4.41-4.63-6.79-9.74-7.13-15.35l-27.41-7.06c-.86,2.05-1.26,4.87-1.2,8.46,.05,3.59,.85,7.57,2.4,11.94,1.55,4.38,4.19,8.79,7.91,13.24,3.72,4.45,8.78,8.6,15.18,12.44,6.4,3.84,14.39,7,23.98,9.47,10.81,2.78,20.44,3.84,28.89,3.18,8.45-.66,15.42-2.97,20.9-6.91,5.48-3.95,9.16-9.57,11.05-16.88,1.53-5.94,1.54-11.17,.03-15.7-1.51-4.53-4.1-8.52-7.75-11.98-3.66-3.46-7.99-6.64-13-9.56-5.01-2.91-10.33-5.74-15.95-8.49-6.69-3.02-12.22-5.66-16.59-7.93-4.37-2.26-7.51-4.57-9.42-6.93-1.91-2.36-2.45-5.14-1.63-8.33,1.02-3.96,3.73-6.59,8.12-7.89,4.39-1.3,10.32-.99,17.78,.93,7.61,1.96,12.92,4.67,15.93,8.12,3.01,3.45,4.39,8.16,4.16,14.1l26.26,6.77c1.96-7.61,1.83-14.83-.39-21.65-2.22-6.82-6.64-12.83-13.26-18.03-6.62-5.19-15.56-9.24-26.83-12.15-7.46-1.92-14.62-2.95-21.49-3.1-6.86-.14-13.06,.62-18.61,2.27-5.54,1.66-10.2,4.28-13.96,7.85-3.76,3.58-6.35,8.1-7.76,13.59-1.45,5.63-1.35,10.73,.32,15.3,1.66,4.57,4.46,8.7,8.38,12.39,3.92,3.69,8.65,7.06,14.2,10.11,5.54,3.05,11.38,5.94,17.5,8.65,6.16,2.56,11.15,4.91,14.99,7.03,3.84,2.13,6.52,4.32,8.05,6.58,1.52,2.26,1.88,4.99,1.06,8.19-.67,2.59-1.88,4.75-3.62,6.49Z"/>
          </g>
          <polygon class="cls-2" points="418.69 303.25 406.47 322.26 426.2 311.25 425.12 333.82 436.7 314.42 447.05 334.51 447.38 311.91 466.39 324.14 455.38 304.4 477.95 305.49 458.55 293.9 478.64 283.55 456.05 283.22 468.27 264.22 448.53 275.22 449.62 252.65 438.03 272.05 427.68 251.97 427.35 274.56 408.35 262.34 419.35 282.07 396.79 280.99 416.18 292.57 396.1 302.92 418.69 303.25"/>
        </g>
      </g>
    </g>
  </g>
</svg>