<?xml version="1.0" encoding="UTF-8"?>
<svg id="Layer_2" data-name="Layer 2" xmlns="http://www.w3.org/2000/svg" viewBox="0 0 322.27 221.58">
  <defs>
    <style>
      .cls-1 {
        fill: #ff4e00;
      }

      .cls-2 {
        fill: #ff1d63;
      }
    </style>
  </defs>
  <g id="_ÎÓÈ_1" data-name="—ÎÓÈ_1">
    <g id="STICKERS">
      <g id="STICKERS-2" data-name="STICKERS">
        <g>
          <path class="cls-2" d="M.36,170.68c-1.21,6.86,.68,13.9,5.15,19.23,3.52,4.19,8.35,6.99,13.63,8-.02,5.53,1.9,10.95,5.51,15.25,4.48,5.33,11.08,8.41,18.05,8.41h20.64c5.19,0,10.19-.97,14.79-2.75,3.36,1.79,7.15,2.75,11.05,2.75h20.65c13.02,0,24.78-6.1,32.31-15.82,.93,2.67,2.33,5.19,4.2,7.4,4.48,5.33,11.08,8.41,18.05,8.41h43.89c5.19,0,10.19-.97,14.79-2.75,3.36,1.79,7.15,2.75,11.05,2.75h43.89c19.87,0,36.8-14.2,40.24-33.77l3.65-20.68c1.21-6.86-.68-13.9-5.15-19.23-4.48-5.33-11.08-8.42-18.05-8.42h-18.42l3.32-18.85c.69-3.9,.37-7.86-.85-11.53,2.62-4.27,4.48-9.08,5.4-14.28l11.84-67.18c1.21-6.86-.68-13.9-5.15-19.23-4.48-5.33-11.08-8.41-18.05-8.41h-43.89c-16.57,0-31.09,9.88-37.46,24.51-14.85,3.77-26.61,15.68-29.87,31.17-.2-.26-.41-.52-.62-.77-4.48-5.33-11.08-8.41-18.05-8.41h-20.64c-5.19,0-10.19,.97-14.79,2.75-3.36-1.79-7.15-2.75-11.05-2.75h-20.65c-16.57,0-31.1,9.88-37.46,24.51-15.27,3.88-27.28,16.37-30.13,32.51l-3.65,20.68c-.69,3.9-.38,7.86,.85,11.53-2.62,4.27-4.48,9.09-5.39,14.28L.36,170.68Z"/>
          <g>
            <path class="cls-1" d="M48.29,139.79h-4.04c-8.42,0-15.59,6.02-17.05,14.3l-3.65,20.68h16.6c2.26,0,3.65,1.25,4.27,1.99,.62,.74,1.61,2.32,1.22,4.55l-2.94,16.7h20.64c8.42,0,15.59-6.01,17.05-14.3l.76-4.34c.47-2.67,2.78-4.61,5.49-4.61h6.64l-4.1,23.25h20.65c8.42,0,15.59-6.01,17.05-14.3l.76-4.34c.47-2.67,2.78-4.61,5.49-4.61h4.04c8.42,0,15.59-6.01,17.05-14.3l3.65-20.68h-23.25l1.22-6.9c.47-2.67,2.78-4.61,5.49-4.61h4.04c8.42,0,15.59-6.02,17.05-14.31l3.65-20.68h-16.6c-2.26,0-3.65-1.25-4.27-1.99-.62-.74-1.61-2.33-1.22-4.55l2.94-16.7h-20.64c-8.42,0-15.59,6.02-17.05,14.3l-.77,4.34c-.47,2.67-2.78,4.61-5.49,4.61h-6.65l4.1-23.24h-20.65c-8.42,0-15.59,6.01-17.05,14.31l-.77,4.33c-.47,2.67-2.78,4.61-5.49,4.61h-4.04c-8.42,0-15.59,6.01-17.05,14.3l-3.65,20.68h23.25l-1.22,6.9c-.47,2.67-2.78,4.61-5.49,4.61Zm68.39-30.03c.48-2.74,2.85-4.72,5.63-4.72h6.52l-1.19,6.78c-.48,2.74-2.85,4.72-5.63,4.72h-6.53l1.2-6.78Zm-27.34,23.25c.48-2.74,2.85-4.72,5.63-4.72h6.53l-1.2,6.78c-.48,2.74-2.85,4.72-5.63,4.72h-6.53l1.2-6.78Zm-27.35,23.25c.48-2.74,2.85-4.72,5.63-4.72h6.53l-1.2,6.78c-.48,2.74-2.85,4.72-5.63,4.72h-6.53l1.2-6.78Z"/>
            <g>
              <path class="cls-1" d="M247.92,105.04c8.42,0,15.58-6.01,17.05-14.3l11.84-67.18h-43.89c-8.42,0-15.58,6.01-17.05,14.3l-.77,4.34c-.47,2.67-2.78,4.61-5.49,4.61h-4.04c-8.42,0-15.59,6.01-17.05,14.3l-3.65,20.68h20.64c8.42,0,15.59-6.01,17.05-14.3l.76-4.34c.47-2.67,2.78-4.6,5.49-4.6h6.64l-8.2,46.49h20.65Z"/>
              <path class="cls-1" d="M168.03,177.34l-3.65,20.68h43.89c8.42,0,15.59-6.01,17.05-14.3l.76-4.34c.47-2.67,2.78-4.61,5.49-4.61,2.26,0,3.65,1.25,4.27,1.99,.62,.74,1.61,2.32,1.22,4.55l-2.95,16.7h43.89c8.42,0,15.59-6.01,17.05-14.3l3.65-20.68h-39.85c-2.26,0-3.65-1.25-4.27-1.99-.62-.74-1.61-2.32-1.22-4.55l7.04-39.95h-20.65c-8.42,0-15.59,6.02-17.05,14.31l-4.86,27.58c-.47,2.67-2.78,4.61-5.49,4.61h-27.29c-8.42,0-15.59,6.01-17.05,14.3Z"/>
            </g>
          </g>
        </g>
      </g>
    </g>
  </g>
</svg>