<?xml version="1.0" encoding="UTF-8"?>
<svg id="Layer_2" data-name="Layer 2" xmlns="http://www.w3.org/2000/svg" viewBox="0 0 382.41 255.93">
  <defs>
    <style>
      .cls-1 {
        fill: #fff;
      }

      .cls-2 {
        fill: #ffd400;
      }
    </style>
  </defs>
  <g id="_ÎÓÈ_1" data-name="—ÎÓÈ_1">
    <g id="STICKERS">
      <g id="STICKERS-2" data-name="STICKERS">
        <g>
          <ellipse class="cls-2" cx="191.21" cy="127.96" rx="124.77" ry="193.27" transform="translate(28.98 291.11) rotate(-78.95)"/>
          <g>
            <path class="cls-1" d="M169.12,221.98l.67,.15c.97,.21,1.94,.41,2.91,.6,.97,.19,1.95,.36,2.89,.53l.75,.13c43.3,7.84,85.33,4.96,118.37-8.11,30.84-12.22,50.42-32.23,55.13-56.35,4.71-24.15-5.91-50.06-29.92-72.96-25.64-24.52-63.5-43-106.64-52.03l-.67-.15c-1.94-.41-3.92-.8-5.8-1.13l-.75-.13c-43.34-7.84-85.37-4.96-118.34,8.11-30.86,12.19-50.45,32.21-55.16,56.36-4.71,24.11,5.91,50.02,29.89,72.94,25.7,24.53,63.57,43.01,106.66,52.03ZM36.98,97.87c4.41-22.59,23.02-41.42,52.4-53.03,32.21-12.77,73.36-15.57,115.85-7.87l.75,.13c.95,.17,1.9,.34,2.85,.52,.95,.18,1.89,.39,2.88,.59l.68,.15c42.3,8.86,79.38,26.93,104.42,50.87,22.86,21.81,33.02,46.26,28.61,68.85-4.4,22.56-23,41.39-52.37,53.02-32.27,12.76-73.43,15.56-115.88,7.87l-.75-.13c-1.91-.34-3.76-.7-5.73-1.12l-.68-.15c-42.26-8.85-79.35-26.92-104.45-50.88-22.84-21.83-32.99-46.27-28.59-68.83Z"/>
            <path class="cls-1" d="M150.38,83.5c14.81,5.88,30.57,10.47,46.85,13.65,16.28,3.18,32.61,4.85,48.54,4.97,15.02,.12,29.59-1.16,43.28-3.8,10.78-2.06,20.93-4.96,30.16-8.63l3.26-1.29-2.53-2.42c-25.64-24.52-63.5-43-106.64-52.03l-.67-.15c-1.94-.41-3.92-.8-5.8-1.13l-.75-.13c-43.34-7.84-85.37-4.96-118.35,8.11l-3.26,1.29,2.53,2.43c7.23,6.92,15.55,13.43,24.72,19.35,11.6,7.54,24.6,14.19,38.66,19.78Zm54.86-46.54l.75,.13c1.9,.34,3.76,.7,5.73,1.12l.68,.15c40.85,8.56,76.83,25.7,101.8,48.43-8.06,2.96-16.79,5.35-26,7.11-13.41,2.58-27.67,3.83-42.4,3.72-15.66-.12-31.71-1.76-47.71-4.88-16-3.12-31.5-7.64-46.05-13.42-13.78-5.47-26.52-11.99-37.87-19.37-7.85-5.07-15.05-10.57-21.44-16.39,31.69-11.67,71.48-14.03,112.51-6.6Z"/>
            <path class="cls-1" d="M172.71,222.73c1.22,.24,2.44,.45,3.65,.65,43.27,7.84,85.3,4.97,118.35-8.1l3.27-1.29-2.54-2.43c-7.16-6.83-15.46-13.34-24.7-19.35-11.71-7.58-24.74-14.24-38.71-19.79-14.81-5.88-30.57-10.47-46.84-13.65-16.28-3.18-32.61-4.85-48.54-4.97-14.99-.12-29.55,1.16-43.28,3.78-10.73,2.05-20.89,4.96-30.19,8.63l-3.27,1.29,2.54,2.43c25.71,24.54,63.58,43.02,106.6,52.01,1.21,.27,2.42,.53,3.65,.77Zm-78.49-60.72c13.44-2.57,27.7-3.82,42.4-3.7,15.66,.12,31.71,1.76,47.71,4.88,16,3.12,31.49,7.64,46.05,13.42,13.7,5.44,26.45,11.96,37.92,19.38,7.89,5.13,15.08,10.63,21.41,16.39-31.76,11.67-71.56,14.02-112.56,6.58h-.04c-2.35-.39-4.69-.85-7.09-1.39-40.79-8.53-76.79-25.67-101.83-48.43,8.11-2.97,16.85-5.37,26.03-7.12Z"/>
            <path class="cls-1" d="M169.8,222.13c.97,.21,1.94,.41,2.91,.6,.97,.19,1.95,.36,2.94,.54,35.63,6.06,71.3-4.24,95.43-27.55,13.45-12.98,22.4-29.27,25.88-47.11,3.49-17.87,1.32-36.34-6.28-53.42-13.59-30.66-42.77-53.61-78.06-61.4-1.94-.41-3.87-.79-5.85-1.14-35.59-6.05-71.25,4.25-95.38,27.56-13.46,12.95-22.42,29.25-25.91,47.12-3.48,17.83-1.32,36.29,6.26,53.38,13.6,30.67,42.77,53.63,78.06,61.42ZM89.89,108.2c3.31-16.96,11.82-32.44,24.62-44.75,23.11-22.31,57.31-32.17,91.48-26.36,.95,.17,1.9,.34,2.85,.52,.95,.18,1.89,.39,2.82,.58,33.88,7.48,61.88,29.47,74.9,58.83,7.22,16.23,9.29,33.77,5.98,50.73-3.3,16.92-11.81,32.39-24.59,44.73-23.11,22.32-57.33,32.17-91.53,26.35-1.91-.34-3.82-.71-5.67-1.11-33.88-7.48-61.88-29.47-74.9-58.84-7.2-16.24-9.26-33.77-5.96-50.7Z"/>
            <path class="cls-1" d="M245.1,138.48c10.2-52.26-5.67-99.49-35.39-105.29-29.71-5.8-62.19,32-72.39,84.25-10.2,52.26,5.67,99.49,35.39,105.29,29.72,5.8,62.19-32,72.39-84.26Zm-103.36-20.18c9.73-49.82,39.83-86.02,67.11-80.7,27.28,5.33,41.56,50.19,31.84,100.01-9.73,49.82-39.83,86.03-67.11,80.7-27.28-5.32-41.56-50.19-31.83-100.02Z"/>
            <rect class="cls-1" x="96.9" y="125.71" width="188.63" height="4.5" transform="translate(28.98 291.12) rotate(-78.95)"/>
            <rect class="cls-1" x="188.96" y="-31.41" width="4.5" height="318.76" transform="translate(28.98 291.11) rotate(-78.95)"/>
          </g>
          <path class="cls-1" d="M65.88,54.77c37.76,12.27,40.22,16.73,35.14,63.74,12.98-45.47,16.93-48.67,56.54-45.85-37.76-12.27-40.22-16.73-35.14-63.74-12.98,45.47-16.93,48.67-56.54,45.84Z"/>
        </g>
      </g>
    </g>
  </g>
</svg>