<?xml version="1.0" encoding="UTF-8"?>
<svg id="Layer_2" data-name="Layer 2" xmlns="http://www.w3.org/2000/svg" viewBox="0 0 731.87 198.74">
  <defs>
    <style>
      .cls-1 {
        fill: #64a3ff;
      }
    </style>
  </defs>
  <g id="_ÎÓÈ_1" data-name="—ÎÓÈ_1">
    <g id="STICKERS">
      <g id="STICKERS-2" data-name="STICKERS">
        <g>
          <path class="cls-1" d="M645.72,198.74H86.15c-47.58,0-86.15-44.49-86.15-99.37H0C0,44.49,38.57,0,86.15,0H645.72c47.58,0,86.15,44.49,86.15,99.37h0c0,54.88-38.57,99.37-86.15,99.37Z"/>
          <g>
            <path d="M69.94,63.93v78.97h-10.57V55.84h18.44l48.95,78.97V55.84h10.46v87.05s-18.54,0-18.54,0L69.94,63.93Z"/>
            <path d="M145.84,98.5c.21-7.88,1.42-14.67,3.61-20.39,2.19-5.72,5.21-10.42,9.06-14.12,3.84-3.69,8.41-6.42,13.69-8.21,5.28-1.78,11.16-2.67,17.63-2.67s12.34,.93,17.63,2.8c5.28,1.87,9.85,4.66,13.69,8.39,3.85,3.73,6.86,8.44,9.06,14.12,2.19,5.68,3.4,12.37,3.61,20.08v2.24c-.21,7.71-1.42,14.41-3.61,20.08-2.19,5.68-5.21,10.34-9.06,13.99-3.85,3.65-8.41,6.36-13.69,8.15-5.28,1.78-11.16,2.67-17.63,2.67s-12.35-.89-17.63-2.67c-5.28-1.78-9.85-4.52-13.69-8.21-3.85-3.69-6.86-8.35-9.06-13.99-2.19-5.64-3.4-12.31-3.61-20.02v-2.24Zm43.99-34.45c-4.96,0-9.47,.75-13.53,2.24-4.06,1.49-7.51,3.71-10.35,6.65-2.84,2.94-5.03,6.63-6.58,11.07-1.55,4.44-2.32,9.64-2.32,15.61s.77,10.76,2.32,15.11c1.54,4.35,3.74,8,6.58,10.94,2.84,2.94,6.29,5.18,10.35,6.71,4.06,1.54,8.57,2.3,13.53,2.3,4.96,0,9.47-.75,13.53-2.24,4.06-1.49,7.51-3.71,10.35-6.65,2.84-2.94,5.03-6.59,6.58-10.94,1.54-4.35,2.32-9.43,2.32-15.23s-.77-10.78-2.32-15.17c-1.55-4.39-3.74-8.1-6.58-11.13-2.84-3.03-6.29-5.33-10.35-6.9-4.06-1.57-8.57-2.36-13.53-2.36Z"/>
            <path d="M343.57,63.8l-13.48,79.09h-19.08l-21.67-87.05h11l20.05,80.58,13.69-80.58h18.87l13.58,79.84,19.84-79.84h11l-21.67,87.05h-18.76l-13.37-79.09Z"/>
            <path d="M424.1,116.53l-11.21,26.36h-11.75l37.2-87.05h17.9s37.2,87.05,37.2,87.05h-11.86l-11.21-26.36h-46.25Zm4.74-10.94h36.77l-18.33-43.03-18.44,43.03Z"/>
            <path d="M570.19,131.95v10.94h-65.77v-10.94h27.49v-14.8l-36.33-61.31h12.83l29.11,49.49,29.32-49.49h12.72l-37.09,61.81v14.3h27.71Z"/>
            <path d="M606.95,127.35v17.78s-15.53,0-15.53,0v-17.78h15.53Zm-1.72-71.51l-.54,59.19h-10.46l-.54-59.19h11.54Z"/>
            <path d="M639.72,127.35v17.78h-15.53v-17.78s15.53,0,15.53,0Zm-1.72-71.51l-.54,59.19h-10.46l-.54-59.19h11.54Z"/>
            <path d="M672.5,127.35v17.78s-15.53,0-15.53,0v-17.78s15.53,0,15.53,0Zm-1.72-71.51l-.54,59.19h-10.46l-.54-59.19h11.54Z"/>
          </g>
        </g>
      </g>
    </g>
  </g>
</svg>