<?xml version="1.0" encoding="UTF-8"?>
<svg id="Layer_2" data-name="Layer 2" xmlns="http://www.w3.org/2000/svg" viewBox="0 0 508.13 412.88">
  <defs>
    <style>
      .cls-1 {
        fill: #64a3ff;
      }
    </style>
  </defs>
  <g id="_ÎÓÈ_1" data-name="—ÎÓÈ_1">
    <g id="STICKERS">
      <g id="STICKERS-2" data-name="STICKERS">
        <g>
          <polygon class="cls-1" points="506.46 307.5 442.07 274 508.13 245.17 492.93 198.85 426.87 227.68 455.91 153.41 416.77 133.04 387.73 207.31 362.73 131.11 322.57 148.64 347.57 224.84 283.18 191.34 265.52 236.5 329.91 269.99 263.85 298.82 279.05 345.15 345.11 316.32 316.07 390.59 355.21 410.95 384.25 336.68 409.25 412.88 449.41 395.36 424.41 319.16 488.8 352.65 506.46 307.5"/>
          <path class="cls-1" d="M258.18,210.82c8.52-22.55,14.08-43.42,16.53-62.04,2.48-18.98,1.35-36.56-3.38-52.25-4.73-15.73-13.23-30.12-25.26-42.79-11.82-12.46-27.73-23.93-47.27-34.09l-2.96-1.54c-14.29-7.43-28.73-12.64-42.92-15.49-14.24-2.85-27.78-3.38-40.24-1.58-12.59,1.81-23.95,5.97-33.74,12.34-9.96,6.48-18.01,15.41-23.93,26.52l-2.6,4.88,43.46,22.61,2.13-2.45c5.36-6.17,11.44-10.33,18.07-12.38,6.93-2.15,14.15-3.01,21.48-2.56,7.42,.45,14.85,1.92,22.09,4.38,7.38,2.51,14.37,5.48,20.79,8.82l3.69,1.92c6.34,3.3,12.99,7.84,19.75,13.49,6.6,5.52,12.23,12.18,16.73,19.8,4.45,7.53,7.54,16.38,9.18,26.3,1.37,8.31,.91,17.63-1.35,27.77l-108.79-56.59c-24.92-12.96-47.26-16.86-66.4-11.6-19.56,5.39-34.76,21.63-45.18,48.28l-.04,.1c-10.09,27.39-10.69,51.84-1.79,72.68,8.78,20.54,25.89,37.54,50.85,50.53l12.55,6.53c24.99,13,47.04,16.44,65.56,10.22,18.74-6.3,33.41-22.3,43.61-47.58l.02-.06c5.78-14.78,8.24-29.14,7.37-42.83l26.67,14.23-41.49,106.12-4.83,12.35,42.31,22.01,4.83-12.35,44.44-113.65,.02-.06Zm-138.81,12.93c-8.21,2.97-19.08,.98-32.29-5.89l-12.55-6.53c-13.69-7.12-22.38-15.39-25.84-24.57-3.4-9.03-2.83-19.86,1.72-32.18,5.08-12.3,11.67-19.88,19.56-22.53,8.14-2.71,19.23-.47,32.96,6.67l12.55,6.53c13.7,7.13,22.36,15.13,25.75,23.8,3.3,8.47,2.74,19.2-1.66,31.91-5.35,12.23-12.14,19.89-20.19,22.79Z"/>
        </g>
      </g>
    </g>
  </g>
</svg>